# xmcd
#
# Track frame offsets:
#	150
#	11544
#	26353
#	40558
#	55581
#	71871
#	87030
#	102821
#	118834
#	134601
#	148208
#	163054
#	179336
#	194049
#
# Disc length: 2812 seconds
# Revision: 0
# Processed by: cddbd v1.5.2PL0 Copyright (c) Steve Scherf et al.
# Submitted via: dBpowerAMP V12.0
#
DISCID=c30afa0e
DTITLE=Lisa Biales - Just Like Honey
DYEAR=2012
DGENRE=Blues Traditional Female
TTITLE0=Call The Fire Wagon
TTITLE1=Just Like Honey
TTITLE2=Sugar
TTITLE3=Gifted In The Ways Of Love
TTITLE4=When You Were Mine
TTITLE5=Yonder Come The Blues
TTITLE6=Gypsy Woman Blues
TTITLE7=Damn Your Eyes
TTITLE8=Come To Me
TTITLE9=Peaches
TTITLE10=Give It Up
TTITLE11=Blues Stay Away From Me
TTITLE12=Watch Out Baby Don't Cry
TTITLE13=Through The Eyes Of A Child
EXTD=
EXTT0=
EXTT1=
EXTT2=
EXTT3=
EXTT4=
EXTT5=
EXTT6=
EXTT7=
EXTT8=
EXTT9=
EXTT10=
EXTT11=
EXTT12=
EXTT13=
PLAYORDER=
